# xmcd
#
# Track frame offsets:
#	150
#	15735
#	32872
#	42545
#	59558
#	79843
#	92439
#	106814
#	119108
#	137875
#	155434
#	169135
#
# Disc length: 2393 seconds
#
# Revision: 0
# Processed by: cddbd v1.5.2PL0 Copyright (c) Steve Scherf et al.
# Submitted via: audiograbber 1.83.01
#
DISCID=a309570c
DTITLE=Stupidity - Illegal U-Turn
DYEAR=2009
DGENRE=Garage Rock
TTITLE0=Set Me Free
TTITLE1=City Boy
TTITLE2=NagNagNag
TTITLE3=Nice Guy
TTITLE4=Claustrophobia
TTITLE5=From My Window
TTITLE6=Bustin' Out
TTITLE7=Ain't Coming Back
TTITLE8=My Irene
TTITLE9=Hitgirl
TTITLE10=Bird Doggin'
TTITLE11=Go Getter Janey
EXTD=
EXTT0=
EXTT1=
EXTT2=
EXTT3=
EXTT4=
EXTT5=
EXTT6=
EXTT7=
EXTT8=
EXTT9=
EXTT10=
EXTT11=
PLAYORDER=
